<?xml version="1.0" encoding="utf-8"?>
<!-- Generator: Adobe Illustrator 26.0.2, SVG Export Plug-In . SVG Version: 6.00 Build 0)  -->
<svg version="1.1" id="Calque_1" xmlns="http://www.w3.org/2000/svg" xmlns:xlink="http://www.w3.org/1999/xlink" x="0px" y="0px"
	 viewBox="0 0 550 550" style="enable-background:new 0 0 550 550;" xml:space="preserve">
<style type="text/css">
	.st0{fill:url(#SVGID_1_);}
	.st1{fill:url(#SVGID_00000088813205923900891870000001872158751658195892_);}
	.st2{fill:url(#SVGID_00000171721404141384231540000009677632871207771830_);}
</style>
<g>
	<g>
		<linearGradient id="SVGID_1_" gradientUnits="userSpaceOnUse" x1="27.2597" y1="188.1089" x2="522.761" y2="188.1089">
			<stop  offset="0.7139" style="stop-color:#EB7044"/>
			<stop  offset="1" style="stop-color:#FFFFFF"/>
		</linearGradient>
		<path class="st0" d="M479.7,231.6c-0.6,0-1.1,0-1.7,0c-57.6,0-115.2,0-172.8,0l-228.9,0c0,0-0.8,0-1.1,0c-0.5,0-1.1,0-1.6,0
			c-0.6,0-1.3,0-1.9,0c-4.7,0-10.2-0.3-16.1-2.7C42.8,224.1,33,213.7,29.2,201c-3.7-12.4-2-25.8,4.5-35.9
			c5.9-10,16.1-17.1,28.1-19.7l0.8-0.2l0.8-0.1c1.9-0.2,3.9-0.3,6-0.3c13.5,0,27,0,40.4,0l73.2,0c1.3,0,2.7-0.1,4.1-0.1
			c3,0,5.9,0.1,8.7,0.2c2.6,0.1,5.1,0.2,7.5,0.2c1.4,0,2.7,0,3.9-0.1c2.6-0.2,5.5-0.3,8.6-0.3c2.9,0,5.7,0.1,8.5,0.1
			c2.6,0.1,5.1,0.1,7.5,0.1c1.4,0,2.7,0,3.9-0.1l0.3,0l0.3,0c27.1-0.1,55.9-0.2,93.5-0.2c16.4,0,32.8,0,49.2,0c16.4,0,32.8,0,49.2,0
			c15.8,0,31.5,0,47.3,0c1.2-0.1,2.4-0.2,3.7-0.2c14.2,0,27.7,7,35.5,18.3c9.6,13.4,10.8,31.6,2.9,45.6
			C510.4,222.3,495.3,231.6,479.7,231.6z"/>
		<path d="M479.2,162.6c8.1,0,16.1,3.8,20.7,10.6c5.5,7.6,6.5,18.5,1.8,26.7c-4,8.1-13,13.7-22,13.7c-0.4,0-0.8,0-1.2,0
			c-57.4,0-114.9,0-172.3,0c-76.6,0-153.1,0-229.7,0c-0.4,0-0.8,0-1.3,0c-1.2,0-2.3,0-3.5,0c-3.3,0-6.5-0.2-9.5-1.4
			c-7.3-2.6-13.5-8.7-15.7-16.2c-2.1-7-1.6-15.1,2.6-21.3c3.5-6.1,9.9-10.2,16.6-11.6c1.3-0.1,2.6-0.2,3.8-0.2c13.5,0,27,0,40.5,0
			c18.6,0,37.2,0,55.8,0c5.9,0,11.8,0,17.7,0c1.3-0.1,2.5-0.1,3.8-0.1c5.4,0,10.8,0.4,16.2,0.4c1.7,0,3.3,0,5-0.1
			c2.5-0.2,5-0.2,7.5-0.2c5.3,0,10.7,0.3,16,0.3c1.5,0,3,0,4.6-0.1c31.2-0.1,62.3-0.2,93.5-0.2c32.8,0,65.5,0,98.3,0
			c16.1,0,32.1,0,48.2,0C477.4,162.7,478.3,162.6,479.2,162.6 M479.2,126.6c-1.5,0-2.9,0.1-4.4,0.2c-14,0-29.3,0-46.6,0
			c-16.4,0-32.7,0-49.1,0c-16.4,0-32.8,0-49.2,0c-37.6,0-66.5,0-93.6,0.2l-0.6,0l-0.6,0c-1,0-2,0.1-3.2,0.1c-2.2,0-4.6-0.1-7.1-0.1
			c-2.9-0.1-5.8-0.2-9-0.2c-3.5,0-6.7,0.1-9.7,0.3c-0.8,0-1.7,0.1-2.7,0.1c-2.1,0-4.4-0.1-6.8-0.2c-2.8-0.1-6-0.2-9.4-0.2
			c-1.5,0-3,0-4.4,0.1l-17,0l-27.9,0l-27.9,0c-13.5,0-27,0-40.4,0c-2.7,0-5.5,0.2-8.1,0.5l-1.7,0.2l-1.7,0.4
			c-16.8,3.6-31.1,13.7-39.6,27.8c-9.4,14.7-11.8,33-6.5,50.6c5.3,18,19.2,32.7,37.1,39.4c8.6,3.4,16.6,3.9,22.6,3.9
			c0.7,0,1.4,0,2.1,0c0.5,0,0.9,0,1.4,0c0.2,0,0.4,0,0.6,0l0.3,0h0.3l114.9,0l114.8,0c57.2,0,114.3,0,171.5,0c0.7,0,1.3,0,2,0
			c22.4,0,43.4-12.7,53.7-32.6c11.1-19.9,9.5-45.5-4-64.4C518.2,136.3,499.5,126.6,479.2,126.6L479.2,126.6z"/>
	</g>
	<g>
		
			<linearGradient id="SVGID_00000150795651646508443820000015171135531784628106_" gradientUnits="userSpaceOnUse" x1="162.3992" y1="274.824" x2="478.7297" y2="274.824">
			<stop  offset="0.6375" style="stop-color:#EB7044"/>
			<stop  offset="1" style="stop-color:#FFFFFF"/>
		</linearGradient>
		<path style="fill:url(#SVGID_00000150795651646508443820000015171135531784628106_);" d="M386.5,317.8l-134,0l-48.4,0
			c-11.1,0-22.1-4.9-30.1-13.5c-8.1-8.7-12.3-20.2-11.6-31.5c0.9-19.6,15.5-36.4,34.7-40.2c2.4-0.5,4.8-0.7,7.1-0.7l0.1,0
			c28.7,0,57.3,0,86,0l146.3,0l0.3,0c15.2,0.4,29.6,9.4,36.7,22.8c5.5,10.3,6.6,22.4,3,33.3c-5.2,17.2-22,29.7-39.9,29.7
			c0,0,0,0,0,0C436.6,317.8,386.5,317.8,386.5,317.8z"/>
		<path d="M204.3,249.4c0,0,0.1,0,0.1,0c28.6,0,57.1,0,85.7,0c31.2,0,62.5,0,93.7,0c17.5,0,35,0,52.6,0c8.9,0.3,17.6,5.6,21.8,13.5
			c3.2,6,3.9,13.4,1.8,19.9c-2.9,9.9-12.8,17.4-23.2,17.4c-0.1,0-0.2,0-0.3,0c-16.3,0-32.7,0-49,0c-44.7,0-89.3,0-134,0
			c-16.3,0-32.7,0-49,0c-0.1,0-0.2,0-0.2,0c-13.6,0-25.1-13.1-24.2-26.5c0.5-11.5,9.4-21.8,20.7-24
			C201.8,249.5,203.1,249.4,204.3,249.4 M204.3,214.4c-3.5,0-7.1,0.4-10.6,1.1c-27,5.3-47.4,28.9-48.8,56.4
			c-1,16.1,5,32.2,16.3,44.4c11.3,12.1,26.9,19,42.9,19c0.1,0,0.3,0,0.4,0c16.3,0,32.6,0,48.9,0l67,0l67,0c16.3,0,32.5,0,48.8,0
			c0.2,0,0.4,0,0.6,0c12.6,0,25.1-4.3,35.4-12.1c10-7.6,17.5-18.1,21.1-29.8c5-15.4,3.4-32.4-4.2-46.8c-4.9-9.4-12.4-17.3-21.6-23
			c-9.1-5.7-19.5-8.8-30.1-9.1l-0.5,0l-0.5,0c-17.5,0-35,0-52.6,0l-46.9,0l-46.9,0c-28.6,0-57.1,0-85.7,0L204.3,214.4L204.3,214.4z"
			/>
	</g>
	<g>
		
			<linearGradient id="SVGID_00000047061913867565536390000017049732958366375579_" gradientUnits="userSpaceOnUse" x1="255.7314" y1="361.8511" x2="438.8331" y2="361.8511">
			<stop  offset="0.449" style="stop-color:#EB7044"/>
			<stop  offset="0.616" style="stop-color:#F19979"/>
			<stop  offset="0.9977" style="stop-color:#FFFEFE"/>
			<stop  offset="1" style="stop-color:#FFFFFF"/>
		</linearGradient>
		<path style="fill:url(#SVGID_00000047061913867565536390000017049732958366375579_);" d="M300.3,405.4c-5,0-10.9-0.4-17-3
			c-16.8-6.5-28-23-27.6-40.5c-0.5-19.6,13.5-37.7,32.8-42.3l0.3-0.1l0.3-0.1c4.4-0.9,8.6-1,12.1-1.1l0.2,0c13.5,0,27,0,40.5,0
			l53.8,0c8.1,0.1,15.7,2.3,21.9,6.1c15.6,9.1,23.9,27.8,20.3,45.7c-3.8,20.1-22,35.1-42.3,35.1l-0.2,0c-9.4,0-18.8,0-28.1,0
			l-34.1,0c-9.3,0-18.6,0-27.8,0l-0.4,0c-0.4,0-0.7,0-1.1,0c-0.5,0-1.1,0-1.6,0C301.6,405.4,301,405.4,300.3,405.4z"/>
		<path d="M301.5,336.3c13.6,0,27.1,0,40.7,0c12.7,0,25.5,0,38.2,0c5,0,10,0,15.1,0c4.5,0.1,9.1,1.1,12.9,3.5
			c9.1,5.2,14.1,16.6,11.9,26.8c-2.1,11.5-12.9,20.6-24.6,20.6c-0.1,0-0.2,0-0.2,0c-9.3,0-18.7,0-28,0c-11.3,0-22.7,0-34,0
			c-9.3,0-18.7,0-28,0c-0.5,0-1,0-1.5,0c-1.2,0-2.4,0-3.6,0c-3.5,0-6.9-0.2-10.1-1.7c-9.7-3.6-16.9-13.4-16.4-23.9
			c-0.5-11.4,7.9-22.1,19-24.7C295.6,336.5,298.5,336.4,301.5,336.3 M301.3,300.3l-0.2,0c-4.4,0-9.6,0.3-15.5,1.4l-0.6,0.1l-0.6,0.1
			c-13.4,3.2-25.4,11-34,22.1c-8.4,10.9-12.9,24.2-12.7,37.7c-0.4,24.8,15.3,48,38.7,57.2c9,3.9,17.4,4.4,23.8,4.4
			c0.7,0,1.4,0,2.2,0c0.5,0,1,0,1.5,0c0.2,0,0.5,0,0.7,0l0.4,0l0.4,0c9.3,0,18.6,0,28,0l17,0l17,0c9.3,0,18.6,0,27.9,0
			c0.1,0,0.2,0,0.3,0c28.8,0,54.5-21.3,59.9-49.7c5.1-25.2-6.6-51.6-28.7-64.6c-8.9-5.5-19.6-8.5-30.9-8.7l-0.3,0l-0.3,0l-15.1,0
			l-19.1,0l-19.1,0c-13.6,0-27.1,0-40.7,0L301.3,300.3L301.3,300.3z"/>
	</g>
</g>
</svg>
