<?xml version="1.0" encoding="utf-8"?>
<!-- Generator: Adobe Illustrator 26.0.2, SVG Export Plug-In . SVG Version: 6.00 Build 0)  -->
<svg version="1.1" id="Calque_1" xmlns="http://www.w3.org/2000/svg" xmlns:xlink="http://www.w3.org/1999/xlink" x="0px" y="0px"
	 viewBox="0 0 573 334" style="enable-background:new 0 0 573 334;" xml:space="preserve">
<style type="text/css">
	.st0{fill:url(#SVGID_1_);}
	.st1{fill:url(#SVGID_00000015356692784221573030000011895177432777958071_);}
	.st2{fill:url(#SVGID_00000083808040672719930820000013207712156658228616_);}
</style>
<g>
	<linearGradient id="SVGID_1_" gradientUnits="userSpaceOnUse" x1="38.7977" y1="79.376" x2="534.2991" y2="79.376">
		<stop  offset="0.7139" style="stop-color:#EB7044"/>
		<stop  offset="1" style="stop-color:#FFFFFF"/>
	</linearGradient>
	<path class="st0" d="M491.2,122.8c-0.6,0-1.1,0-1.7,0c-57.6,0-115.2,0-172.8,0l-228.9,0c0,0-0.8,0-1.1,0c-0.5,0-1.1,0-1.6,0
		c-0.6,0-1.3,0-1.9,0c-4.7,0-10.2-0.3-16.1-2.7c-12.8-4.8-22.7-15.2-26.4-27.8c-3.7-12.4-2-25.8,4.5-35.9
		c5.9-10,16.1-17.1,28.1-19.7l0.8-0.2l0.9-0.1c1.9-0.2,3.9-0.3,5.9-0.3c13.5,0,27,0,40.5,0l55.4,0l17.7,0c1.3,0,2.7-0.1,4.1-0.1
		c3,0,5.9,0.1,8.7,0.2c2.6,0.1,5.1,0.2,7.5,0.2c1.4,0,2.7,0,3.9-0.1c2.6-0.2,5.4-0.3,8.6-0.3c2.9,0,5.7,0.1,8.5,0.1
		c2.6,0.1,5.1,0.1,7.5,0.1c1.4,0,2.7,0,3.9-0.1l0.3,0l0.3,0c27.1-0.1,56-0.2,93.6-0.2c16.4,0,32.8,0,49.1,0c16.4,0,32.7,0,49.1,0
		c15.8,0,31.6,0,47.3,0c1.2-0.1,2.4-0.2,3.7-0.2c14.2,0,27.7,7,35.5,18.3c9.6,13.4,10.8,31.6,2.9,45.6
		C521.9,113.6,506.8,122.8,491.2,122.8z"/>
	<path d="M490.8,53.9c8.1,0,16.1,3.8,20.7,10.6c5.5,7.6,6.5,18.5,1.8,26.7c-4,8.1-13,13.7-22,13.7c-0.4,0-0.8,0-1.2,0
		c-57.4,0-114.9,0-172.3,0c-76.6,0-153.1,0-229.7,0c-0.4,0-0.8,0-1.3,0c-1.2,0-2.3,0-3.5,0c-3.3,0-6.5-0.2-9.5-1.4
		c-7.3-2.6-13.5-8.7-15.7-16.2c-2.1-7-1.6-15.1,2.6-21.3c3.5-6.1,9.9-10.2,16.6-11.6c1.3-0.1,2.6-0.2,3.8-0.2c13.5,0,27,0,40.5,0
		c18.6,0,37.2,0,55.8,0c5.9,0,11.8,0,17.7,0c1.3-0.1,2.5-0.1,3.8-0.1c5.4,0,10.8,0.4,16.2,0.4c1.7,0,3.3,0,5-0.1
		c2.5-0.2,5-0.2,7.5-0.2c5.3,0,10.7,0.3,16,0.3c1.5,0,3,0,4.6-0.1c31.2-0.1,62.3-0.2,93.5-0.2c32.8,0,65.5,0,98.3,0
		c16.1,0,32.1,0,48.2,0C488.9,54,489.8,53.9,490.8,53.9 M490.8,17.9c-1.5,0-2.9,0.1-4.4,0.2c-14,0-29.3,0-46.6,0
		c-16.4,0-32.7,0-49.1,0c-16.4,0-32.8,0-49.2,0c-37.6,0-66.5,0-93.6,0.2l-0.6,0l-0.6,0c-1,0-2,0.1-3.2,0.1c-2.2,0-4.6-0.1-7.1-0.1
		c-2.9-0.1-5.8-0.2-9-0.2c-3.5,0-6.7,0.1-9.7,0.3c-0.8,0-1.7,0.1-2.7,0.1c-2.1,0-4.4-0.1-6.8-0.2c-2.8-0.1-6-0.2-9.4-0.2
		c-1.5,0-3,0-4.4,0.1l-17,0l-27.9,0l-27.9,0c-13.5,0-27,0-40.4,0c-2.7,0-5.5,0.2-8.1,0.5l-1.7,0.2l-1.7,0.4
		C52.8,22.7,38.5,32.8,30,46.9c-9.4,14.7-11.8,33-6.5,50.6c5.3,18,19.2,32.7,37.1,39.4c8.6,3.4,16.6,3.9,22.6,3.9c0.7,0,1.4,0,2.1,0
		c0.5,0,0.9,0,1.4,0c0.2,0,0.4,0,0.6,0l0.3,0H88l114.9,0l114.8,0c57.2,0,114.3,0,171.5,0c0.7,0,1.3,0,2,0
		c22.4,0,43.4-12.7,53.7-32.6c11.1-19.9,9.5-45.5-4-64.4C529.7,27.6,511,17.9,490.8,17.9L490.8,17.9z"/>
</g>
<g>
	
		<linearGradient id="SVGID_00000092422808042767152560000000731205198600606630_" gradientUnits="userSpaceOnUse" x1="173.9377" y1="166.0911" x2="490.2682" y2="166.0911">
		<stop  offset="0.6375" style="stop-color:#EB7044"/>
		<stop  offset="1" style="stop-color:#FFFFFF"/>
	</linearGradient>
	<path style="fill:url(#SVGID_00000092422808042767152560000000731205198600606630_);" d="M215.7,209c-11.1,0-22.1-4.9-30.1-13.5
		c-8.1-8.7-12.3-20.2-11.6-31.5c0.9-19.6,15.4-36.4,34.7-40.2c2.4-0.5,4.8-0.7,7.1-0.7l0.1,0c28.5,0,57,0,85.4,0l146.8,0l0.3,0
		c15.2,0.4,29.6,9.4,36.7,22.8c5.5,10.3,6.5,22.4,3,33.3c-5.2,17.2-22,29.7-39.9,29.7c-0.2,0-47.5,0-47.5,0l-134,0L215.7,209z"/>
	<path d="M215.9,140.7c0,0,0.1,0,0.1,0c28.6,0,57.1,0,85.7,0c31.2,0,62.5,0,93.7,0c17.5,0,35,0,52.6,0c8.9,0.3,17.6,5.6,21.8,13.5
		c3.2,6,3.9,13.4,1.8,19.9c-2.9,9.9-12.8,17.4-23.2,17.4c-0.1,0-0.2,0-0.3,0c-16.3,0-32.7,0-49,0c-44.7,0-89.3,0-134,0
		c-16.3,0-32.7,0-49,0c-0.1,0-0.2,0-0.2,0c-13.6,0-25.1-13.1-24.2-26.5c0.5-11.5,9.4-21.8,20.7-24
		C213.4,140.8,214.6,140.7,215.9,140.7 M215.9,105.7c-3.5,0-7.1,0.4-10.6,1.1c-27,5.3-47.4,28.9-48.8,56.4c-1,16.1,5,32.2,16.3,44.4
		c11.3,12.1,26.9,19,42.9,19c0.1,0,0.3,0,0.4,0c16.3,0,32.6,0,48.9,0l67,0l67,0c16.3,0,32.5,0,48.8,0c0.2,0,0.4,0,0.6,0
		c12.6,0,25.1-4.3,35.4-12.1c10-7.6,17.5-18.1,21.1-29.8c5-15.4,3.4-32.4-4.2-46.8c-4.9-9.4-12.4-17.3-21.6-23
		c-9.1-5.7-19.5-8.8-30.1-9.1l-0.5,0l-0.5,0c-17.5,0-35,0-52.6,0l-46.9,0l-46.9,0c-28.6,0-57.1,0-85.7,0L215.9,105.7L215.9,105.7z"
		/>
</g>
<g>
	
		<linearGradient id="SVGID_00000147925805802785675560000013148097805487530128_" gradientUnits="userSpaceOnUse" x1="267.2699" y1="253.1187" x2="450.3712" y2="253.1187">
		<stop  offset="0.449" style="stop-color:#EB7044"/>
		<stop  offset="0.616" style="stop-color:#F19979"/>
		<stop  offset="0.9977" style="stop-color:#FFFEFE"/>
		<stop  offset="1" style="stop-color:#FFFFFF"/>
	</linearGradient>
	<path style="fill:url(#SVGID_00000147925805802785675560000013148097805487530128_);" d="M311.8,296.6c-5,0-10.9-0.4-17-3
		c-16.8-6.5-28-23-27.6-40.5c-0.5-19.6,13.5-37.7,32.8-42.2l0.3-0.1l0.3-0.1c4.4-0.9,8.6-1,12.1-1.1l0.2,0c13.4,0,26.9,0,40.3,0
		l54,0c8.1,0.1,15.7,2.3,21.9,6.1c15.6,9.1,23.9,27.8,20.3,45.7c-3.8,20-22,35.1-42.3,35.1l-0.2,0c-9.4,0-18.8,0-28.3,0l-33.5,0
		c-9.4,0-18.8,0-28.2,0l-0.4,0c-0.4,0-0.7,0-1.1,0c-0.5,0-1.1,0-1.6,0C313.2,296.6,312.5,296.6,311.8,296.6z"/>
	<path d="M313,227.6c13.6,0,27.1,0,40.7,0c12.7,0,25.5,0,38.2,0c5,0,10,0,15.1,0c4.5,0.1,9.1,1.1,12.9,3.6
		c9.1,5.2,14.1,16.6,11.9,26.8c-2.1,11.5-12.9,20.6-24.6,20.6c-0.1,0-0.2,0-0.2,0c-9.3,0-18.7,0-28,0c-11.3,0-22.7,0-34,0
		c-9.3,0-18.7,0-28,0c-0.5,0-1,0-1.5,0c-1.2,0-2.4,0-3.6,0c-3.5,0-6.9-0.2-10.1-1.7c-9.7-3.6-16.9-13.4-16.4-23.9
		c-0.5-11.4,7.9-22.1,19-24.7C307.1,227.8,310.1,227.6,313,227.6 M312.8,191.6l-0.2,0c-4.4,0-9.6,0.3-15.5,1.4l-0.6,0.1l-0.6,0.1
		c-13.4,3.2-25.4,11-34,22.1c-8.4,10.9-12.9,24.2-12.7,37.7c-0.4,24.8,15.3,48,38.7,57.2c9,3.9,17.4,4.4,23.8,4.4c0.7,0,1.4,0,2.2,0
		c0.5,0,1,0,1.5,0c0.2,0,0.5,0,0.7,0l0.4,0l0.4,0c9.3,0,18.6,0,28,0l17,0l17,0c9.3,0,18.6,0,27.9,0c0.1,0,0.2,0,0.3,0
		c28.8,0,54.5-21.3,59.9-49.7c5.1-25.2-6.6-51.6-28.7-64.6c-8.9-5.5-19.6-8.5-30.9-8.7l-0.3,0l-0.3,0l-15.1,0l-19.1,0l-19.1,0
		c-13.6,0-27.1,0-40.7,0L312.8,191.6L312.8,191.6z"/>
</g>
</svg>
