<?xml version="1.0" encoding="utf-8"?>
<!-- Generator: Adobe Illustrator 26.0.2, SVG Export Plug-In . SVG Version: 6.00 Build 0)  -->
<svg version="1.1" id="Calque_1" xmlns="http://www.w3.org/2000/svg" xmlns:xlink="http://www.w3.org/1999/xlink" x="0px" y="0px"
	 viewBox="0 0 1397.7 334" style="enable-background:new 0 0 1397.7 334;" xml:space="preserve">
<style type="text/css">
	.st0{fill:url(#SVGID_1_);}
	.st1{fill:url(#SVGID_00000104685074064813715640000000396860861837386637_);}
	.st2{fill:url(#SVGID_00000029724733850557838790000011147311887618807735_);}
	.st3{fill:#EC7044;}
</style>
<g>
	
		<linearGradient id="SVGID_1_" gradientUnits="userSpaceOnUse" x1="38.7738" y1="256.75" x2="534.2025" y2="256.75" gradientTransform="matrix(1 0 0 -1 0 336)">
		<stop  offset="0.7139" style="stop-color:#EB7044"/>
		<stop  offset="1" style="stop-color:#FFFFFF"/>
	</linearGradient>
	<path class="st0" d="M491.2,122.8c-0.6,0-1.1,0-1.7,0c-57.6,0-115.2,0-172.8,0H87.8c0,0-0.8,0-1.1,0c-0.5,0-1.1,0-1.6,0
		c-0.6,0-1.3,0-1.9,0c-4.7,0-10.2-0.3-16.1-2.7c-12.8-4.8-22.7-15.2-26.4-27.8c-3.7-12.4-2-25.8,4.5-35.9
		c5.9-10,16.1-17.1,28.1-19.7l0.8-0.2l0.9-0.1c1.9-0.2,3.9-0.3,5.9-0.3c13.5,0,27,0,40.5,0h55.4h17.7c1.3,0,2.7-0.1,4.1-0.1
		c3,0,5.9,0.1,8.7,0.2c2.6,0.1,5.1,0.2,7.5,0.2c1.4,0,2.7,0,3.9-0.1c2.6-0.2,5.4-0.3,8.6-0.3c2.9,0,5.7,0.1,8.5,0.1
		c2.6,0.1,5.1,0.1,7.5,0.1c1.4,0,2.7,0,3.9-0.1h0.3h0.3c27.1-0.1,56-0.2,93.6-0.2c16.4,0,32.8,0,49.1,0c16.4,0,32.7,0,49.1,0
		c15.8,0,31.6,0,47.3,0c1.2-0.1,2.4-0.2,3.7-0.2c14.2,0,27.7,7,35.5,18.3c9.6,13.4,10.8,31.6,2.9,45.6
		C521.9,113.6,506.8,122.8,491.2,122.8z"/>
	<path d="M490.8,53.9c8.1,0,16.1,3.8,20.7,10.6c5.5,7.6,6.5,18.5,1.8,26.7c-4,8.1-13,13.7-22,13.7c-0.4,0-0.8,0-1.2,0
		c-57.4,0-114.9,0-172.3,0c-76.6,0-153.1,0-229.7,0c-0.4,0-0.8,0-1.3,0c-1.2,0-2.3,0-3.5,0c-3.3,0-6.5-0.2-9.5-1.4
		c-7.3-2.6-13.5-8.7-15.7-16.2c-2.1-7-1.6-15.1,2.6-21.3c3.5-6.1,9.9-10.2,16.6-11.6c1.3-0.1,2.6-0.2,3.8-0.2c13.5,0,27,0,40.5,0
		c18.6,0,37.2,0,55.8,0c5.9,0,11.8,0,17.7,0c1.3-0.1,2.5-0.1,3.8-0.1c5.4,0,10.8,0.4,16.2,0.4c1.7,0,3.3,0,5-0.1
		c2.5-0.2,5-0.2,7.5-0.2c5.3,0,10.7,0.3,16,0.3c1.5,0,3,0,4.6-0.1c31.2-0.1,62.3-0.2,93.5-0.2c32.8,0,65.5,0,98.3,0
		c16.1,0,32.1,0,48.2,0C488.9,54,489.8,53.9,490.8,53.9 M490.8,17.9c-1.5,0-2.9,0.1-4.4,0.2c-14,0-29.3,0-46.6,0
		c-16.4,0-32.7,0-49.1,0s-32.8,0-49.2,0c-37.6,0-66.5,0-93.6,0.2h-0.6h-0.6c-1,0-2,0.1-3.2,0.1c-2.2,0-4.6-0.1-7.1-0.1
		c-2.9-0.1-5.8-0.2-9-0.2c-3.5,0-6.7,0.1-9.7,0.3c-0.8,0-1.7,0.1-2.7,0.1c-2.1,0-4.4-0.1-6.8-0.2c-2.8-0.1-6-0.2-9.4-0.2
		c-1.5,0-3,0-4.4,0.1h-17h-27.9h-27.9c-13.5,0-27,0-40.4,0c-2.7,0-5.5,0.2-8.1,0.5l-1.7,0.2l-1.7,0.4C52.8,22.7,38.5,32.8,30,46.9
		c-9.4,14.7-11.8,33-6.5,50.6c5.3,18,19.2,32.7,37.1,39.4c8.6,3.4,16.6,3.9,22.6,3.9c0.7,0,1.4,0,2.1,0c0.5,0,0.9,0,1.4,0
		c0.2,0,0.4,0,0.6,0h0.3H88h114.9h114.8c57.2,0,114.3,0,171.5,0c0.7,0,1.3,0,2,0c22.4,0,43.4-12.7,53.7-32.6
		c11.1-19.9,9.5-45.5-4-64.4C529.7,27.6,511,17.9,490.8,17.9L490.8,17.9z"/>
</g>
<g>
	
		<linearGradient id="SVGID_00000145023081825010759480000014858268873205671053_" gradientUnits="userSpaceOnUse" x1="173.9246" y1="169.95" x2="490.1416" y2="169.95" gradientTransform="matrix(1 0 0 -1 0 336)">
		<stop  offset="0.6375" style="stop-color:#EB7044"/>
		<stop  offset="1" style="stop-color:#FFFFFF"/>
	</linearGradient>
	<path style="fill:url(#SVGID_00000145023081825010759480000014858268873205671053_);" d="M215.7,209c-11.1,0-22.1-4.9-30.1-13.5
		c-8.1-8.7-12.3-20.2-11.6-31.5c0.9-19.6,15.4-36.4,34.7-40.2c2.4-0.5,4.8-0.7,7.1-0.7h0.1c28.5,0,57,0,85.4,0h146.8h0.3
		c15.2,0.4,29.6,9.4,36.7,22.8c5.5,10.3,6.5,22.4,3,33.3c-5.2,17.2-22,29.7-39.9,29.7c-0.2,0-47.5,0-47.5,0h-134L215.7,209z"/>
	<path d="M215.9,140.7h0.1c28.6,0,57.1,0,85.7,0c31.2,0,62.5,0,93.7,0c17.5,0,35,0,52.6,0c8.9,0.3,17.6,5.6,21.8,13.5
		c3.2,6,3.9,13.4,1.8,19.9c-2.9,9.9-12.8,17.4-23.2,17.4c-0.1,0-0.2,0-0.3,0c-16.3,0-32.7,0-49,0c-44.7,0-89.3,0-134,0
		c-16.3,0-32.7,0-49,0c-0.1,0-0.2,0-0.2,0c-13.6,0-25.1-13.1-24.2-26.5c0.5-11.5,9.4-21.8,20.7-24
		C213.4,140.8,214.6,140.7,215.9,140.7 M215.9,105.7c-3.5,0-7.1,0.4-10.6,1.1c-27,5.3-47.4,28.9-48.8,56.4c-1,16.1,5,32.2,16.3,44.4
		c11.3,12.1,26.9,19,42.9,19c0.1,0,0.3,0,0.4,0c16.3,0,32.6,0,48.9,0h67h67c16.3,0,32.5,0,48.8,0c0.2,0,0.4,0,0.6,0
		c12.6,0,25.1-4.3,35.4-12.1c10-7.6,17.5-18.1,21.1-29.8c5-15.4,3.4-32.4-4.2-46.8c-4.9-9.4-12.4-17.3-21.6-23
		c-9.1-5.7-19.5-8.8-30.1-9.1h-0.5H448c-17.5,0-35,0-52.6,0h-46.9h-46.9C273,105.8,244.5,105.8,215.9,105.7L215.9,105.7L215.9,105.7
		z"/>
</g>
<g>
	
		<linearGradient id="SVGID_00000034788869473993221020000013240094122096880008_" gradientUnits="userSpaceOnUse" x1="267.187" y1="82.9" x2="450.2334" y2="82.9" gradientTransform="matrix(1 0 0 -1 0 336)">
		<stop  offset="0.449" style="stop-color:#EB7044"/>
		<stop  offset="0.616" style="stop-color:#F19979"/>
		<stop  offset="0.9977" style="stop-color:#FFFEFE"/>
		<stop  offset="1" style="stop-color:#FFFFFF"/>
	</linearGradient>
	<path style="fill:url(#SVGID_00000034788869473993221020000013240094122096880008_);" d="M311.8,296.6c-5,0-10.9-0.4-17-3
		c-16.8-6.5-28-23-27.6-40.5c-0.5-19.6,13.5-37.7,32.8-42.2l0.3-0.1l0.3-0.1c4.4-0.9,8.6-1,12.1-1.1h0.2c13.4,0,26.9,0,40.3,0h54
		c8.1,0.1,15.7,2.3,21.9,6.1c15.6,9.1,23.9,27.8,20.3,45.7c-3.8,20-22,35.1-42.3,35.1h-0.2c-9.4,0-18.8,0-28.3,0h-33.5
		c-9.4,0-18.8,0-28.2,0h-0.4c-0.4,0-0.7,0-1.1,0c-0.5,0-1.1,0-1.6,0C313.2,296.6,312.5,296.6,311.8,296.6z"/>
	<path d="M313,227.6c13.6,0,27.1,0,40.7,0c12.7,0,25.5,0,38.2,0c5,0,10,0,15.1,0c4.5,0.1,9.1,1.1,12.9,3.6
		c9.1,5.2,14.1,16.6,11.9,26.8c-2.1,11.5-12.9,20.6-24.6,20.6c-0.1,0-0.2,0-0.2,0c-9.3,0-18.7,0-28,0c-11.3,0-22.7,0-34,0
		c-9.3,0-18.7,0-28,0c-0.5,0-1,0-1.5,0c-1.2,0-2.4,0-3.6,0c-3.5,0-6.9-0.2-10.1-1.7c-9.7-3.6-16.9-13.4-16.4-23.9
		c-0.5-11.4,7.9-22.1,19-24.7C307.1,227.8,310.1,227.6,313,227.6 M312.8,191.6h-0.2c-4.4,0-9.6,0.3-15.5,1.4l-0.6,0.1l-0.6,0.1
		c-13.4,3.2-25.4,11-34,22.1c-8.4,10.9-12.9,24.2-12.7,37.7c-0.4,24.8,15.3,48,38.7,57.2c9,3.9,17.4,4.4,23.8,4.4c0.7,0,1.4,0,2.2,0
		c0.5,0,1,0,1.5,0c0.2,0,0.5,0,0.7,0h0.4h0.4c9.3,0,18.6,0,28,0h17h17c9.3,0,18.6,0,27.9,0c0.1,0,0.2,0,0.3,0
		c28.8,0,54.5-21.3,59.9-49.7c5.1-25.2-6.6-51.6-28.7-64.6c-8.9-5.5-19.6-8.5-30.9-8.7h-0.3h-0.3h-15.1h-19.1h-19.1
		C339.9,191.6,326.4,191.6,312.8,191.6L312.8,191.6L312.8,191.6z"/>
</g>
<path d="M617.6,226.5h-23.3v52.1h-29.3V136.4h52.8c16.8,0,29.8,3.7,38.9,11.2c9.1,7.5,13.7,18.1,13.7,31.7c0,9.7-2.1,17.8-6.3,24.3
	c-4.2,6.5-10.6,11.6-19.1,15.5l30.8,58.1v1.4h-31.4L617.6,226.5z M594.2,202.8h23.6c7.4,0,13.1-1.9,17.1-5.6c4-3.7,6.1-8.9,6.1-15.5
	c0-6.7-1.9-12-5.7-15.8c-3.8-3.8-9.7-5.8-17.5-5.8h-23.5V202.8z"/>
<path d="M739.4,280.6c-15.5,0-28.1-4.8-37.8-14.3c-9.7-9.5-14.6-22.2-14.6-38v-2.7c0-10.6,2.1-20.1,6.2-28.5
	c4.1-8.4,9.9-14.8,17.4-19.3c7.5-4.5,16.1-6.8,25.7-6.8c14.5,0,25.8,4.6,34.1,13.7c8.3,9.1,12.5,22,12.5,38.8v11.5h-67.3
	c0.9,6.9,3.7,12.4,8.3,16.6c4.6,4.2,10.4,6.2,17.4,6.2c10.9,0,19.4-3.9,25.5-11.8l13.9,15.5c-4.2,6-10,10.7-17.2,14
	S748.1,280.6,739.4,280.6z M736.1,193.7c-5.6,0-10.1,1.9-13.6,5.7c-3.5,3.8-5.7,9.2-6.7,16.3h39.3v-2.3c-0.1-6.3-1.8-11.1-5.1-14.6
	C746.7,195.5,742.1,193.7,736.1,193.7z"/>
<path d="M828.6,278.6h-28.3v-150h28.3V278.6z"/>
<path d="M900.5,280.6c-15.5,0-28.1-4.8-37.8-14.3c-9.7-9.5-14.6-22.2-14.6-38v-2.7c0-10.6,2.1-20.1,6.2-28.5
	c4.1-8.4,9.9-14.8,17.4-19.3c7.5-4.5,16.1-6.8,25.7-6.8c14.5,0,25.8,4.6,34.1,13.7c8.3,9.1,12.5,22,12.5,38.8v11.5h-67.3
	c0.9,6.9,3.7,12.4,8.3,16.6c4.6,4.2,10.4,6.2,17.4,6.2c10.9,0,19.4-3.9,25.5-11.8l13.9,15.5c-4.2,6-10,10.7-17.2,14
	S909.3,280.6,900.5,280.6z M897.3,193.7c-5.6,0-10.1,1.9-13.6,5.7c-3.5,3.8-5.7,9.2-6.7,16.3h39.3v-2.3c-0.1-6.3-1.8-11.1-5.1-14.6
	C907.9,195.5,903.3,193.7,897.3,193.7z"/>
<path d="M1021.2,278.6c-1.3-2.5-2.2-5.7-2.8-9.5c-6.8,7.6-15.7,11.4-26.7,11.4c-10.4,0-18.9-3-25.7-9c-6.8-6-10.2-13.5-10.2-22.7
	c0-11.2,4.2-19.8,12.5-25.8c8.3-6,20.3-9,36-9.1h13V208c0-4.9-1.3-8.8-3.8-11.7c-2.5-2.9-6.5-4.4-11.9-4.4c-4.8,0-8.5,1.1-11.2,3.4
	c-2.7,2.3-4.1,5.4-4.1,9.4h-28.2c0-6.1,1.9-11.8,5.7-17c3.8-5.2,9.1-9.3,16-12.3c6.9-3,14.6-4.4,23.2-4.4c13,0,23.4,3.3,31,9.8
	c7.6,6.5,11.5,15.7,11.5,27.6v45.8c0.1,10,1.5,17.6,4.2,22.8v1.7H1021.2z M997.8,259c4.2,0,8-0.9,11.5-2.8s6.1-4.3,7.8-7.5v-18.2
	h-10.5c-14.1,0-21.6,4.9-22.6,14.6l-0.1,1.7c0,3.5,1.2,6.4,3.7,8.7C990.2,257.8,993.6,259,997.8,259z"/>
<g>
	<path class="st3" d="M1134.3,199.4c-3.8-0.5-7.2-0.8-10.2-0.8c-10.7,0-17.7,3.6-21,10.8v69.1h-28.2V172.9h26.7l0.8,12.6
		c5.7-9.7,13.5-14.6,23.5-14.6c3.1,0,6.1,0.4,8.8,1.3L1134.3,199.4z"/>
	<path class="st3" d="M1211.2,267.9c-7,8.5-16.6,12.7-28.9,12.7c-11.3,0-20-3.3-25.9-9.8c-6-6.5-9-16-9.1-28.6v-69.2h28.2v68.3
		c0,11,5,16.5,15,16.5c9.6,0,16.1-3.3,19.7-10v-74.9h28.3v105.7H1212L1211.2,267.9z"/>
	<path class="st3" d="M1285.8,172.9l0.9,12.2c7.6-9.4,17.7-14.2,30.4-14.2c11.2,0,19.5,3.3,25,9.9c5.5,6.6,8.3,16.4,8.4,29.5v68.3
		h-28.2V211c0-6-1.3-10.3-3.9-13c-2.6-2.7-6.9-4.1-13-4.1c-7.9,0-13.9,3.4-17.9,10.2v74.5h-28.2V172.9H1285.8z"/>
</g>
</svg>
